# xmcd
#
# Track frame offsets:
#	182
#	18892
#	37830
#	56622
#	71652
#	88570
#	108495
#	126927
#	141925
#	158957
#	175352
#	188580
#	201995
#	219967
#	236130
#	254530
#	272117
#	290880
#	309817
#	324385
#
# Disc length: 4517
#
# Revision: 1
# Processed by: cddbd v1.5.1PL0 Copyright (c) Steve Scherf et al.
# Submitted via: audiograbber 1.82.02
# Normalized: r0:DSETVAR1
#
DISCID=2811a314
DTITLE=Various Artist - Techno Dance Party 2
DYEAR=1900
DGENRE=
TTITLE0=Chimo Bayo - Asi Me Gusta A Mi
TTITLE1=Pleasure Game - Le Seigneur Des Tenebres
TTITLE2=Human Ressource - Dominator
TTITLE3=2 Unlimited - Get Ready For This
TTITLE4=Anticapella - 2 231
TTITLE5=Brainwave - How Do You Feel
TTITLE6=Masterminds - E.M.F.
TTITLE7=Meng Syndicate - Sonar System
TTITLE8=Beltram - My Sound
TTITLE9=Phenomenia - Who Is Elvis
TTITLE10=Digital Excitation - Dream Party
TTITLE11=Set Up System - Music And Noise
TTITLE12=RJ's Rule - Rave This Nation
TTITLE13=Digital Orgasm - Moog Eruption
TTITLE14=Techno Groove Mach 4 - Techno Slam
TTITLE15=Space Trax - Deduction
TTITLE16=Gateway Experience - Twin Freaks
TTITLE17=The Prodigy - Android
TTITLE18=Mental Cube - "Q"
TTITLE19=Fun Lab - Waves
EXTD=rlokker@worldonline.nl\nGerne =misc\nVarious Artists
EXTT0=
EXTT1=
EXTT2=
EXTT3=
EXTT4=
EXTT5=
EXTT6=
EXTT7=
EXTT8=
EXTT9=
EXTT10=
EXTT11=
EXTT12=
EXTT13=
EXTT14=
EXTT15=
EXTT16=
EXTT17=
EXTT18=
EXTT19=
PLAYORDER=
